<svg width="141" height="36" viewBox="0 0 141 36" fill="none" xmlns="http://www.w3.org/2000/svg">
<g filter="url(#filter0_d_0_1)">
<path d="M31.0261 4.29881L47.782 31.2304H14.2702L31.0261 4.29881ZM31.0261 0.999996L11.1285 32.9758H50.9411L31.0261 0.999996Z" fill="#6EFDB5"/>
<path d="M3.57089 32.1031L16.5392 11.263L29.5076 32.1031H3.57089Z" fill="#F0F7F4"/>
<path d="M16.5392 12.9211L27.9367 31.2479H5.14173L16.5392 12.9211ZM16.5392 9.60484L2 32.9758H31.0959L16.5567 9.60484H16.5392Z" fill="#6EFDB5"/>
<path d="M32.6493 32.1031L45.6177 11.263L58.6035 32.1031H32.6493Z" fill="#F0F7F4"/>
<path d="M45.6176 12.9211L57.0151 31.2479H34.2027L45.6002 12.9211M45.6176 9.60484L31.0784 32.9758H60.1743L45.6351 9.60484H45.6176Z" fill="#6EFDB5"/>
</g>
<path d="M48.6083 0.999996H50.5351L58.7978 19.2563H56.6097L54.4869 14.4554H44.6239L42.4684 19.2563H40.3782L48.6409 0.999996H48.6083ZM53.6377 12.6265L49.5227 3.38409L45.375 12.6265H53.6377Z" fill="#F2FFF9"/>
<path d="M66.8971 1.13065H68.9546V11.9734L79.3728 1.13065H82.0508L74.2454 9.06673L82.3447 19.2889H79.7647L72.8084 10.5037L68.9546 14.4228V19.2889H66.8971V1.1633V1.13065Z" fill="#F2FFF9"/>
<path d="M90.2156 1.13065H92.2731V19.2563H90.2156V1.13065Z" fill="#F2FFF9"/>
<path d="M100.536 1.13065H102.822L109.288 16.7415L115.755 1.13065H117.943L110.137 19.3869H108.309L100.503 1.13065H100.536Z" fill="#F2FFF9"/>
<path d="M130.157 0.999996H132.084L140.347 19.2563H138.159L136.036 14.4554H126.173L124.017 19.2563H121.927L130.19 0.999996H130.157ZM135.219 12.6265L131.104 3.38409L126.957 12.6265H135.219Z" fill="#F2FFF9"/>
<path d="M49.6534 19.5828V32.8097H48.8042V26.4085H41.0641V32.8097H40.215V19.5828H41.0641V25.69H48.8042V19.5828H49.6534Z" fill="#F2FFF9"/>
<path d="M57.2302 32.1238C56.2504 31.5686 55.4666 30.7522 54.9441 29.7071C54.4215 28.662 54.1276 27.5189 54.1276 26.2126C54.1276 24.9062 54.3889 23.7305 54.9441 22.7181C55.4993 21.7057 56.2504 20.8892 57.2302 20.334C58.21 19.7461 59.3204 19.4849 60.5287 19.4849C61.7371 19.4849 62.8475 19.7788 63.8273 20.334C64.807 20.8892 65.5909 21.7057 66.1134 22.7181C66.6359 23.7305 66.9299 24.9062 66.9299 26.2126C66.9299 27.5189 66.6686 28.662 66.1134 29.7071C65.5582 30.7522 64.807 31.536 63.8273 32.1238C62.8475 32.7117 61.7371 32.973 60.5287 32.973C59.3204 32.973 58.21 32.679 57.2302 32.1238ZM63.3701 31.4706C64.2192 30.9808 64.8724 30.2949 65.3622 29.3805C65.8521 28.466 66.0807 27.421 66.0807 26.2126C66.0807 25.0042 65.8521 23.9265 65.3622 23.012C64.8724 22.0976 64.2192 21.4117 63.3701 20.9219C62.5209 20.432 61.5738 20.2034 60.5287 20.2034C59.4837 20.2034 58.5366 20.432 57.6874 20.9219C56.8383 21.4117 56.1851 22.0976 55.6952 23.012C55.2053 23.9265 54.9767 24.9716 54.9767 26.2126C54.9767 27.4536 55.238 28.466 55.6952 29.3805C56.1851 30.2949 56.8383 30.9808 57.6874 31.4706C58.5366 31.9605 59.4837 32.1891 60.5287 32.1891C61.5738 32.1891 62.5209 31.9279 63.3701 31.4706Z" fill="#F2FFF9"/>
<path d="M72.2531 32.0912H77.1846V32.8097H71.404V19.5828H72.2531V32.0912Z" fill="#F2FFF9"/>
<path d="M89.8564 21.3464C91.0648 22.5221 91.6853 24.1551 91.6853 26.2452C91.6853 28.3354 91.0648 29.9357 89.8564 31.1114C88.648 32.2545 86.9171 32.8423 84.6963 32.8423H80.9732V19.6155H84.6963C86.9171 19.6155 88.648 20.2034 89.8564 21.3791V21.3464ZM89.2359 30.5562C90.281 29.5111 90.8035 28.0741 90.8035 26.2452C90.8035 24.4163 90.281 22.9467 89.2359 21.9016C88.1908 20.8565 86.6558 20.334 84.6637 20.334H81.7897V32.1238H84.6637C86.6558 32.1238 88.1908 31.6013 89.2359 30.5562Z" fill="#F2FFF9"/>
<path d="M96.9758 19.5828V32.8097H96.1267V19.5828H96.9758Z" fill="#F2FFF9"/>
<path d="M111.411 32.8096H110.562L102.789 20.9872V32.8096H101.94V19.6155H102.789L110.562 31.4053V19.6155H111.411V32.8096Z" fill="#F2FFF9"/>
<path d="M127.283 23.5019C126.891 22.5221 126.271 21.7057 125.422 21.1178C124.573 20.53 123.528 20.236 122.319 20.236C121.274 20.236 120.327 20.4646 119.478 20.9545C118.629 21.4444 117.976 22.1302 117.486 23.0447C116.996 23.9591 116.767 25.0042 116.767 26.2126C116.767 27.421 117.028 28.466 117.486 29.3805C117.976 30.2949 118.629 30.9808 119.478 31.4706C120.327 31.9605 121.274 32.1891 122.319 32.1891C123.364 32.1891 124.246 31.9605 125.062 31.5033C125.879 31.0461 126.532 30.4256 127.022 29.5764C127.512 28.7273 127.773 27.7802 127.838 26.6371H121.927V25.9187H128.688V26.4739C128.655 27.7149 128.361 28.8253 127.806 29.805C127.251 30.7848 126.499 31.536 125.552 32.0912C124.605 32.6464 123.528 32.9076 122.319 32.9076C121.111 32.9076 120 32.6137 119.021 32.0585C118.041 31.4706 117.257 30.6868 116.734 29.6744C116.212 28.662 115.918 27.4863 115.918 26.2126C115.918 24.9389 116.179 23.7305 116.734 22.7181C117.29 21.7057 118.041 20.8892 119.021 20.334C120 19.7461 121.111 19.4849 122.319 19.4849C123.723 19.4849 124.965 19.8441 126.01 20.5626C127.055 21.2811 127.806 22.2609 128.296 23.5019H127.316H127.283Z" fill="#F2FFF9"/>
<path d="M134.697 32.5157C134.044 32.2218 133.554 31.7972 133.195 31.2747C132.835 30.7521 132.639 30.1969 132.574 29.5438H133.456C133.554 30.2296 133.88 30.8501 134.436 31.4053C134.991 31.9605 135.807 32.2218 136.918 32.2218C137.571 32.2218 138.126 32.0912 138.616 31.8625C139.106 31.6339 139.465 31.3073 139.726 30.8828C139.988 30.4582 140.118 30.001 140.118 29.5111C140.118 28.8579 139.955 28.3681 139.661 27.9762C139.367 27.5842 138.975 27.323 138.518 27.127C138.061 26.9311 137.44 26.7351 136.656 26.5392C135.807 26.3106 135.121 26.0819 134.599 25.8533C134.076 25.6247 133.652 25.2655 133.293 24.8083C132.933 24.351 132.77 23.6979 132.77 22.8814C132.77 22.2609 132.933 21.673 133.26 21.1505C133.586 20.6279 134.076 20.2034 134.697 19.9094C135.317 19.6155 136.036 19.4522 136.82 19.4522C137.995 19.4522 138.943 19.7461 139.661 20.334C140.379 20.9219 140.804 21.6077 140.935 22.4568H140.02C139.955 22.1302 139.792 21.771 139.53 21.4117C139.269 21.0525 138.91 20.7586 138.453 20.5299C137.995 20.3013 137.408 20.1707 136.754 20.1707C135.873 20.1707 135.121 20.3993 134.534 20.8892C133.946 21.3791 133.619 22.0323 133.619 22.8161C133.619 23.4692 133.782 23.9591 134.076 24.351C134.403 24.7429 134.762 25.0369 135.219 25.2002C135.677 25.3634 136.297 25.5921 137.081 25.788C137.963 26.0166 138.649 26.2452 139.138 26.4738C139.661 26.7025 140.086 27.029 140.445 27.5189C140.804 27.9762 141 28.6293 141 29.4131C141 30.001 140.837 30.5562 140.543 31.0787C140.216 31.6013 139.759 32.0258 139.171 32.3851C138.583 32.7443 137.832 32.875 136.95 32.875C136.069 32.875 135.35 32.7117 134.697 32.4177V32.5157Z" fill="#F2FFF9"/>
<defs>
<filter id="filter0_d_0_1" x="-1.66893e-06" y="-3.8147e-06" width="62.1743" height="35.9758" filterUnits="userSpaceOnUse" color-interpolation-filters="sRGB">
<feFlood flood-opacity="0" result="BackgroundImageFix"/>
<feColorMatrix in="SourceAlpha" type="matrix" values="0 0 0 0 0 0 0 0 0 0 0 0 0 0 0 0 0 0 127 0" result="hardAlpha"/>
<feOffset dy="1"/>
<feGaussianBlur stdDeviation="1"/>
<feComposite in2="hardAlpha" operator="out"/>
<feColorMatrix type="matrix" values="0 0 0 0 0 0 0 0 0 0 0 0 0 0 0 0 0 0 0.25 0"/>
<feBlend mode="normal" in2="BackgroundImageFix" result="effect1_dropShadow_0_1"/>
<feBlend mode="normal" in="SourceGraphic" in2="effect1_dropShadow_0_1" result="shape"/>
</filter>
</defs>
</svg>
