<svg width="63" height="36" viewBox="0 0 63 36" fill="none" xmlns="http://www.w3.org/2000/svg">
<g filter="url(#filter0_d_7_3)">
<path d="M31.0261 4.29881L47.782 31.2304H14.2702L31.0261 4.29881ZM31.0261 0.999996L11.1285 32.9758H50.9411L31.0261 0.999996Z" fill="#6EFDB5"/>
<path d="M3.57089 32.1031L16.5392 11.263L29.5076 32.1031H3.57089Z" fill="#F0F7F4"/>
<path d="M16.5392 12.9211L27.9367 31.2479H5.14173L16.5392 12.9211ZM16.5392 9.60484L2 32.9758H31.0959L16.5567 9.60484H16.5392Z" fill="#6EFDB5"/>
<path d="M32.6493 32.1031L45.6177 11.263L58.6035 32.1031H32.6493Z" fill="#F0F7F4"/>
<path d="M45.6176 12.9211L57.0151 31.2479H34.2027L45.6002 12.9211M45.6176 9.60484L31.0784 32.9758H60.1743L45.6351 9.60484H45.6176Z" fill="#6EFDB5"/>
</g>
<defs>
<filter id="filter0_d_7_3" x="-1.66893e-06" y="-3.8147e-06" width="62.1743" height="35.9758" filterUnits="userSpaceOnUse" color-interpolation-filters="sRGB">
<feFlood flood-opacity="0" result="BackgroundImageFix"/>
<feColorMatrix in="SourceAlpha" type="matrix" values="0 0 0 0 0 0 0 0 0 0 0 0 0 0 0 0 0 0 127 0" result="hardAlpha"/>
<feOffset dy="1"/>
<feGaussianBlur stdDeviation="1"/>
<feComposite in2="hardAlpha" operator="out"/>
<feColorMatrix type="matrix" values="0 0 0 0 0 0 0 0 0 0 0 0 0 0 0 0 0 0 0.25 0"/>
<feBlend mode="normal" in2="BackgroundImageFix" result="effect1_dropShadow_7_3"/>
<feBlend mode="normal" in="SourceGraphic" in2="effect1_dropShadow_7_3" result="shape"/>
</filter>
</defs>
</svg>
